<svg width="234" height="28" viewBox="0 0 234 28" fill="none" xmlns="http://www.w3.org/2000/svg">
<path d="M1.56 23V6.992H6.384V19.376H12.792V23H1.56ZM15.2006 23V6.992H26.5526V10.592H20.0246V13.184H25.6166V16.784H20.0006V19.4H26.5526V23H15.2006ZM28.2244 23L34.1284 6.992H39.4564L44.8324 23H39.9124L34.9924 7.592L37.5364 7.376L32.6644 23H28.2244ZM31.8964 20.192L32.7124 16.832H39.7444L40.2004 20.192H31.8964ZM66.0366 23V6.992H77.3886V10.592H70.8606V13.184H76.4526V16.784H70.8366V19.4H77.3886V23H66.0366ZM99.0538 23.36C98.2378 23.36 97.4778 23.328 96.7738 23.264C96.0698 23.216 95.4138 23.12 94.8058 22.976C94.1978 22.832 93.6298 22.632 93.1018 22.376V17.912C93.9498 18.568 94.8458 19.04 95.7898 19.328C96.7498 19.616 97.5818 19.76 98.2858 19.76C98.7978 19.76 99.2138 19.68 99.5338 19.52C99.8698 19.344 100.038 19.008 100.038 18.512C100.038 18.192 99.8618 17.936 99.5098 17.744C99.1578 17.536 98.6778 17.344 98.0698 17.168C97.4618 16.992 96.7738 16.776 96.0058 16.52C95.5738 16.376 95.1498 16.192 94.7338 15.968C94.3338 15.744 93.9738 15.464 93.6538 15.128C93.3338 14.776 93.0778 14.36 92.8858 13.88C92.6938 13.384 92.5978 12.792 92.5978 12.104C92.5978 11.352 92.7338 10.64 93.0058 9.968C93.2938 9.296 93.7098 8.712 94.2538 8.216C94.8138 7.704 95.5178 7.304 96.3658 7.016C97.2138 6.728 98.1978 6.584 99.3178 6.584C99.9898 6.584 100.59 6.624 101.118 6.704C101.662 6.768 102.174 6.88 102.654 7.04C103.15 7.184 103.638 7.376 104.118 7.616V12.176C103.766 11.856 103.342 11.552 102.846 11.264C102.366 10.976 101.862 10.736 101.334 10.544C100.822 10.336 100.326 10.216 99.8458 10.184C99.4778 10.152 99.1098 10.168 98.7418 10.232C98.3898 10.296 98.0938 10.432 97.8538 10.64C97.6298 10.832 97.5178 11.12 97.5178 11.504C97.5178 11.856 97.6458 12.136 97.9018 12.344C98.1578 12.536 98.5098 12.704 98.9578 12.848C99.4218 12.976 99.9338 13.12 100.494 13.28C101.182 13.472 101.798 13.688 102.342 13.928C102.902 14.168 103.374 14.464 103.758 14.816C104.158 15.168 104.462 15.6 104.67 16.112C104.878 16.608 104.982 17.208 104.982 17.912C104.982 18.984 104.726 19.936 104.214 20.768C103.718 21.584 103.022 22.224 102.126 22.688C101.246 23.136 100.222 23.36 99.0538 23.36ZM114.628 23.36C112.02 23.36 110.02 22.696 108.628 21.368C107.236 20.024 106.54 17.904 106.54 15.008C106.54 12.24 107.196 10.144 108.508 8.72C109.836 7.296 111.876 6.584 114.628 6.584C115.476 6.584 116.34 6.688 117.22 6.896C118.116 7.104 118.98 7.392 119.812 7.76V11.864C118.932 11.256 118.108 10.824 117.34 10.568C116.588 10.312 115.908 10.184 115.3 10.184C114.532 10.184 113.86 10.328 113.284 10.616C112.724 10.904 112.284 11.4 111.964 12.104C111.66 12.792 111.508 13.768 111.508 15.032C111.508 16.264 111.668 17.224 111.988 17.912C112.308 18.6 112.764 19.08 113.356 19.352C113.964 19.624 114.692 19.76 115.54 19.76C116.036 19.76 116.652 19.64 117.388 19.4C118.124 19.144 118.932 18.72 119.812 18.128V22.232C119.396 22.456 118.892 22.656 118.3 22.832C117.708 22.992 117.092 23.12 116.452 23.216C115.812 23.312 115.204 23.36 114.628 23.36ZM122.568 23V6.992H127.368V13.16H132.12V6.992H136.92V23H132.12V17H127.368V23H122.568ZM140.029 23V6.992H151.381V10.592H144.853V13.184H150.445V16.784H144.829V19.4H151.381V23H140.029ZM154.373 23V6.992H161.405C164.221 6.992 166.269 7.672 167.549 9.032C168.845 10.392 169.493 12.384 169.493 15.008C169.493 17.616 168.845 19.6 167.549 20.96C166.269 22.32 164.221 23 161.405 23H154.373ZM159.173 19.4H160.805C161.989 19.4 162.909 19.056 163.565 18.368C164.237 17.664 164.573 16.544 164.573 15.008C164.573 13.456 164.237 12.336 163.565 11.648C162.909 10.944 161.989 10.592 160.805 10.592H159.173V19.4ZM179.728 23.6C177.072 23.6 175.104 23.104 173.824 22.112C172.544 21.12 171.904 19.504 171.904 17.264V6.992H176.944V16.976C176.944 18 177.136 18.76 177.52 19.256C177.904 19.752 178.552 20 179.464 20C180.248 20 180.864 19.752 181.312 19.256C181.76 18.76 181.984 18 181.984 16.976V6.992H186.544V17.264C186.544 18.752 186.248 19.968 185.656 20.912C185.064 21.84 184.256 22.52 183.232 22.952C182.208 23.384 181.04 23.6 179.728 23.6ZM189.669 23V6.992H194.493V19.376H200.901V23H189.669ZM203.31 23V6.992H214.662V10.592H208.134V13.184H213.726V16.784H208.11V19.4H214.662V23H203.31ZM217.654 23V6.992H225.982C227.886 6.992 229.398 7.424 230.518 8.288C231.638 9.152 232.198 10.472 232.198 12.248C232.198 12.856 232.078 13.496 231.838 14.168C231.598 14.824 231.222 15.416 230.71 15.944C230.198 16.456 229.542 16.816 228.742 17.024L228.07 15.368L233.086 23H226.894L223.198 16.184L225.286 17.888H222.454V23H217.654ZM222.454 14.504H225.382C225.798 14.504 226.166 14.36 226.486 14.072C226.806 13.768 226.966 13.232 226.966 12.464C226.966 11.808 226.806 11.336 226.486 11.048C226.166 10.744 225.798 10.592 225.382 10.592H222.454V14.504Z" fill="white"/>
<path d="M54.5 4C53.1211 4 51.7557 4.27159 50.4818 4.79926C49.2079 5.32694 48.0504 6.10036 47.0754 7.07538C45.1062 9.04451 44 11.7152 44 14.5C44 17.2848 45.1062 19.9555 47.0754 21.9246C48.0504 22.8996 49.2079 23.6731 50.4818 24.2007C51.7557 24.7284 53.1211 25 54.5 25C57.2848 25 59.9555 23.8938 61.9246 21.9246C63.8938 19.9555 65 17.2848 65 14.5C65 13.1211 64.7284 11.7557 64.2007 10.4818C63.6731 9.2079 62.8996 8.05039 61.9246 7.07538C60.9496 6.10036 59.7921 5.32694 58.5182 4.79926C57.2443 4.27159 55.8789 4 54.5 4Z" fill="#121212"/>
<path d="M52.4 19.75L47.15 14.5L48.6305 13.009L52.4 16.7785L60.3695 8.809L61.85 10.3M54.5 4C53.1211 4 51.7557 4.27159 50.4818 4.79926C49.2079 5.32694 48.0504 6.10036 47.0754 7.07538C45.1062 9.04451 44 11.7152 44 14.5C44 17.2848 45.1062 19.9555 47.0754 21.9246C48.0504 22.8996 49.2079 23.6731 50.4818 24.2007C51.7557 24.7284 53.1211 25 54.5 25C57.2848 25 59.9555 23.8938 61.9246 21.9246C63.8938 19.9555 65 17.2848 65 14.5C65 13.1211 64.7284 11.7557 64.2007 10.4818C63.6731 9.2079 62.8996 8.05039 61.9246 7.07538C60.9496 6.10036 59.7921 5.32694 58.5182 4.79926C57.2443 4.27159 55.8789 4 54.5 4Z" fill="#26C644"/>
</svg>
