<?xml version="1.0" encoding="UTF-8" standalone="no"?><!DOCTYPE svg PUBLIC "-//W3C//DTD SVG 1.1//EN" "http://www.w3.org/Graphics/SVG/1.1/DTD/svg11.dtd"><svg width="100%" height="100%" viewBox="0 0 14 14" version="1.1" xmlns="http://www.w3.org/2000/svg" xmlnsXlink="http://www.w3.org/1999/xlink" xmlSpace="preserve" xmlnsSerif="http://www.serif.com/" style="fill-rule:evenodd;clip-rule:evenodd;stroke-linejoin:round;stroke-miterlimit:2;"><path d="M8.46,0.153c-0.96,-0.204 -1.96,-0.204 -2.91,0l-0.43,1.946c-0.51,0.197 -0.99,0.474 -1.42,0.821l-1.9,-0.604c-0.66,0.729 -1.15,1.588 -1.46,2.521l1.48,1.342c-0.09,0.544 -0.09,1.098 -0,1.642l-1.48,1.342c0.31,0.933 0.8,1.792 1.46,2.521l1.9,-0.604c0.43,0.347 0.91,0.624 1.42,0.821l0.43,1.946c0.95,0.204 1.95,0.204 2.91,-0l0.42,-1.946c0.52,-0.197 1,-0.474 1.42,-0.821l1.9,0.604c0.66,-0.729 1.16,-1.588 1.46,-2.521l-1.47,-1.342c0.08,-0.544 0.08,-1.098 -0,-1.642l1.47,-1.342c-0.3,-0.933 -0.8,-1.792 -1.46,-2.521l-1.9,0.604c-0.42,-0.347 -0.9,-0.624 -1.42,-0.821l-0.42,-1.946Zm-0.84,0.879c-0.41,-0.043 -0.83,-0.043 -1.24,0l-0.41,1.841c-0.77,0.192 -1.48,0.599 -2.03,1.172l-1.8,-0.569c-0.24,0.338 -0.45,0.7 -0.62,1.08l1.39,1.271c-0.22,0.767 -0.22,1.579 -0,2.346l-1.39,1.271c0.17,0.38 0.38,0.742 0.62,1.08l1.8,-0.569c0.55,0.573 1.26,0.98 2.03,1.172l0.41,1.841c0.41,0.043 0.83,0.043 1.24,-0l0.41,-1.841c0.77,-0.192 1.48,-0.599 2.03,-1.172l1.8,0.569c0.24,-0.338 0.45,-0.7 0.62,-1.08l-1.39,-1.271c0.22,-0.767 0.22,-1.579 -0,-2.346l1.39,-1.271c-0.17,-0.38 -0.38,-0.742 -0.62,-1.08l-1.8,0.569c-0.55,-0.573 -1.26,-0.98 -2.03,-1.172l-0.41,-1.841Zm-0.62,3.468c1.38,0 2.5,1.12 2.5,2.5c0,1.38 -1.12,2.5 -2.5,2.5c-1.38,0 -2.5,-1.12 -2.5,-2.5c0,-1.38 1.12,-2.5 2.5,-2.5Zm0,1c0.83,0 1.5,0.672 1.5,1.5c0,0.828 -0.67,1.5 -1.5,1.5c-0.83,0 -1.5,-0.672 -1.5,-1.5c0,-0.828 0.67,-1.5 1.5,-1.5Z"/></svg>