<?xml version="1.0" encoding="UTF-8" standalone="no"?><!DOCTYPE svg PUBLIC "-//W3C//DTD SVG 1.1//EN" "http://www.w3.org/Graphics/SVG/1.1/DTD/svg11.dtd"><svg width="100%" height="100%" viewBox="0 0 16 16" version="1.1" xmlns="http://www.w3.org/2000/svg" xmlnsXlink="http://www.w3.org/1999/xlink" xmlSpace="preserve" xmlnsSerif="http://www.serif.com/" style="fill-rule:evenodd;clip-rule:evenodd;stroke-linejoin:round;stroke-miterlimit:2;"><path d="M16,3c0,-1.656 -1.344,-3 -3,-3l-10,0c-1.656,0 -3,1.344 -3,3l0,10c0,1.656 1.344,3 3,3l10,0c1.656,0 3,-1.344 3,-3l0,-10Z" style="fill:#fff;"/><path d="M16,3c0,-1.656 -1.344,-3 -3,-3l-10,0c-1.656,0 -3,1.344 -3,3l0,10c0,1.656 1.344,3 3,3l10,0c1.656,0 3,-1.344 3,-3l0,-10Zm-1,0l0,10c0,1.104 -0.896,2 -2,2l-10,0c-1.104,0 -2,-0.896 -2,-2l0,-10c0,-1.104 0.896,-2 2,-2l10,0c1.104,0 2,0.896 2,2Z" style="fill:#ddd;"/></svg>