<?xml version="1.0" encoding="UTF-8" standalone="no"?><!DOCTYPE svg PUBLIC "-//W3C//DTD SVG 1.1//EN" "http://www.w3.org/Graphics/SVG/1.1/DTD/svg11.dtd"><svg width="100%" height="100%" viewBox="0 0 14 14" version="1.1" xmlns="http://www.w3.org/2000/svg" xmlnsXlink="http://www.w3.org/1999/xlink" xmlSpace="preserve" xmlnsSerif="http://www.serif.com/" style="fill-rule:evenodd;clip-rule:evenodd;stroke-linejoin:round;stroke-miterlimit:1.41421;"><path d="M10.025,13.999l-7,0c-1.657,0 -3.025,-1.311 -3.025,-2.969l0,-8c0,-1.656 1.371,-3.029 3.028,-3.029l7,0c1.648,0 2.957,1.357 2.972,3l-2,0l0,-0.971l-9,0l0,10l9,0l0,-1.029l2,0l0,0.029c0,1.658 -1.317,2.969 -2.975,2.969Zm0.975,-7.998l0,-2l3,3l-3,3l0,-2l-3,0l0,-2l3,0Z" style="fill-rule:nonzero;"/></svg>