<?xml version="1.0" encoding="UTF-8" standalone="no"?><!DOCTYPE svg PUBLIC "-//W3C//DTD SVG 1.1//EN" "http://www.w3.org/Graphics/SVG/1.1/DTD/svg11.dtd"><svg width="100%" height="100%" viewBox="0 0 4 4" version="1.1" xmlns="http://www.w3.org/2000/svg" xmlnsXlink="http://www.w3.org/1999/xlink" xmlSpace="preserve" xmlnsSerif="http://www.serif.com/" style="fill-rule:evenodd;clip-rule:evenodd;stroke-linejoin:round;stroke-miterlimit:2;"><path d="M3.12,1.2l-1.92,0c-0.265,0 -0.48,0.215 -0.48,0.48l-0,1.68l2.136,0c0.278,0 0.504,-0.226 0.504,-0.504l-0,-1.416c-0.011,-0.125 -0.091,-0.205 -0.24,-0.24Zm-2.64,2.159l-0,-1.679c-0,-0.191 0.076,-0.374 0.211,-0.509c0.135,-0.135 0.318,-0.211 0.509,-0.211l1.919,0c-0.012,-0.267 -0.233,-0.48 -0.503,-0.48l-0.696,-0l-0.48,-0.48l-0.936,0c-0.278,0 -0.504,0.226 -0.504,0.504l0,2.352c0,0.27 0.213,0.491 0.48,0.503Z"/></svg>