<?xml version="1.0" encoding="UTF-8" standalone="no"?>
<!DOCTYPE svg PUBLIC "-//W3C//DTD SVG 1.1//EN" "http://www.w3.org/Graphics/SVG/1.1/DTD/svg11.dtd">
<svg width="100%" height="100%" viewBox="0 0 16 16" version="1.1" xmlns="http://www.w3.org/2000/svg" xmlnsXlink="http://www.w3.org/1999/xlink" xmlSpace="preserve" xmlnsSerif="http://www.serif.com/" style="fill-rule:evenodd;clip-rule:evenodd;stroke-linejoin:round;stroke-miterlimit:2;">
    <g transform="matrix(1,0,0,1,-2254,-672)">
        <path d="M2263.87,682.582C2262.83,683.467 2261.47,684 2260,684C2256.69,684 2254,681.311 2254,678C2254,674.689 2256.69,672 2260,672C2263.31,672 2266,674.689 2266,678C2266,679.477 2265.47,680.83 2264.58,681.875L2269.85,687.146C2270.05,687.341 2270.05,687.658 2269.85,687.853C2269.66,688.048 2269.34,688.048 2269.14,687.853L2263.87,682.582ZM2260,673C2262.76,673 2265,675.24 2265,678C2265,680.76 2262.76,683 2260,683C2257.24,683 2255,680.76 2255,678C2255,675.24 2257.24,673 2260,673Z"/>
    </g>
</svg>
