<?xml version="1.0" encoding="UTF-8" standalone="no"?><!DOCTYPE svg PUBLIC "-//W3C//DTD SVG 1.1//EN" "http://www.w3.org/Graphics/SVG/1.1/DTD/svg11.dtd"><svg width="100%" height="100%" viewBox="0 0 14 14" version="1.1" xmlns="http://www.w3.org/2000/svg" xmlnsXlink="http://www.w3.org/1999/xlink" xmlSpace="preserve" xmlnsSerif="http://www.serif.com/" style="fill-rule:evenodd;clip-rule:evenodd;stroke-linejoin:round;stroke-miterlimit:2;"><path d="M13,1.95c0,-1.076 -0.874,-1.95 -1.95,-1.95l-9.1,0c-1.076,0 -1.95,0.874 -1.95,1.95l-0,9.1c-0,1.076 0.874,1.95 1.95,1.95l9.1,0c1.076,0 1.95,-0.874 1.95,-1.95l0,-9.1Zm-9,-0.95l0,11l-2.05,-0c-0.524,-0 -0.95,-0.426 -0.95,-0.95l-0,-9.1c-0,-0.524 0.426,-0.95 0.95,-0.95l2.05,-0Zm1,-0l0,11l3,-0l0,-11l-3,0Zm4,0l2.05,0c0.524,0 0.95,0.426 0.95,0.95l0,9.1c0,0.524 -0.426,0.95 -0.95,0.95l-2.05,-0l0,-11Z"/></svg>