<?xml version="1.0" encoding="UTF-8" standalone="no"?><!DOCTYPE svg PUBLIC "-//W3C//DTD SVG 1.1//EN" "http://www.w3.org/Graphics/SVG/1.1/DTD/svg11.dtd"><svg width="100%" height="100%" viewBox="0 0 14 14" version="1.1" xmlns="http://www.w3.org/2000/svg" xmlnsXlink="http://www.w3.org/1999/xlink" xmlSpace="preserve" xmlnsSerif="http://www.serif.com/" style="fill-rule:evenodd;clip-rule:evenodd;stroke-linejoin:round;stroke-miterlimit:2;"><path d="M11,1.687l0,9.61l-1.158,-1.158c-0.195,-0.195 -0.512,-0.195 -0.707,0c-0.195,0.195 -0.195,0.512 -0,0.707l2.007,2.008c0.195,0.195 0.512,0.195 0.707,-0l2.016,-2.016c0.195,-0.195 0.195,-0.512 0,-0.707c-0.195,-0.196 -0.512,-0.196 -0.707,-0l-1.158,1.158l-0,-9.594l1.158,1.159c0.195,0.195 0.512,0.195 0.707,-0c0.195,-0.196 0.195,-0.512 0,-0.708l-2.016,-2.015c-0.195,-0.196 -0.512,-0.196 -0.707,-0l-2.007,2.007c-0.195,0.195 -0.195,0.512 -0,0.707c0.195,0.195 0.512,0.195 0.707,0l1.158,-1.158Zm-4,8.813c0,-0.276 -0.224,-0.5 -0.5,-0.5l-6,0c-0.276,0 -0.5,0.224 -0.5,0.5c0,0.276 0.224,0.5 0.5,0.5l6,0c0.276,0 0.5,-0.224 0.5,-0.5Zm0,-4c0,-0.276 -0.224,-0.5 -0.5,-0.5l-6,0c-0.276,0 -0.5,0.224 -0.5,0.5c0,0.276 0.224,0.5 0.5,0.5l6,0c0.276,0 0.5,-0.224 0.5,-0.5Zm0,-4c0,-0.276 -0.224,-0.5 -0.5,-0.5l-6,0c-0.276,0 -0.5,0.224 -0.5,0.5c0,0.276 0.224,0.5 0.5,0.5l6,0c0.276,0 0.5,-0.224 0.5,-0.5Z" style="fill:#0200fb;"/><path d="M11,1.687l0,9.61l-1.158,-1.158c-0.195,-0.195 -0.512,-0.195 -0.707,0c-0.195,0.195 -0.195,0.512 -0,0.707l2.007,2.008c0.195,0.195 0.512,0.195 0.707,-0l2.016,-2.016c0.195,-0.195 0.195,-0.512 0,-0.707c-0.195,-0.196 -0.512,-0.196 -0.707,-0l-1.158,1.158l-0,-9.594l1.158,1.159c0.195,0.195 0.512,0.195 0.707,-0c0.195,-0.196 0.195,-0.512 0,-0.708l-2.016,-2.015c-0.195,-0.196 -0.512,-0.196 -0.707,-0l-2.007,2.007c-0.195,0.195 -0.195,0.512 -0,0.707c0.195,0.195 0.512,0.195 0.707,0l1.158,-1.158Zm-4,8.813c0,-0.276 -0.224,-0.5 -0.5,-0.5l-6,0c-0.276,0 -0.5,0.224 -0.5,0.5c0,0.276 0.224,0.5 0.5,0.5l6,0c0.276,0 0.5,-0.224 0.5,-0.5Zm0,-4c0,-0.276 -0.224,-0.5 -0.5,-0.5l-6,0c-0.276,0 -0.5,0.224 -0.5,0.5c0,0.276 0.224,0.5 0.5,0.5l6,0c0.276,0 0.5,-0.224 0.5,-0.5Zm0,-4c0,-0.276 -0.224,-0.5 -0.5,-0.5l-6,0c-0.276,0 -0.5,0.224 -0.5,0.5c0,0.276 0.224,0.5 0.5,0.5l6,0c0.276,0 0.5,-0.224 0.5,-0.5Z"/></svg>